<svg
        xmlns="http://www.w3.org/2000/svg"
        xmlns:xlink="http://www.w3.org/1999/xlink"
        width="40"
        height="40"
        viewBox="0 0 500 500"
      >
        <defs>
          <style>
            .a {
              clip-path: url(#b);
            }
            .b {
              fill: #fff;
            }
          </style>
          <clipPath id="b"><rect width="500" height="500" /></clipPath>
        </defs>
        <g id="a" class="a">
          <path
            class="b"
            d="M421.007,288.9c-11.932-104.735-73.172-184.5-146.919-184.5-82.293,0-149.028,99.352-149.028,221.9,0,60.633,22.186,116.523,22.186,116.523,1.23,2.955,2.3,5.383,3.051,7.044C188.888,523,259.984,569.533,335.488,569.533c104.224,0,188.7-66.432,188.7-148.357,0-57.742-41.945-107.77-103.185-132.288h0ZM157.2,326.7c0-104.623,52.343-189.423,116.938-189.423,54.292,0,99.943,59.931,113.089,141.185a237.419,237.419,0,0,0-51.736-5.654c-79.817,0-148.053,38.958-175.639,94a300.909,300.909,0,0,1-2.636-40.124h0Zm22.857,112.5a88.749,88.749,0,0,1-1.8-17.762c0-64.531,70.2-116.826,156.775-116.826a203.722,203.722,0,0,1,55.682,7.6q.335,7.188.335,14.5c0,104.623-52.343,189.439-116.938,189.439-38.575,0-72.773-30.253-94.065-76.91v-.032h0Zm154.97,99.064q-7.859,0-15.526-.559c60.106-28.592,103.617-112.434,103.617-211.4v-1.5c41.45,21.02,68.684,56.464,68.684,96.652,0,64.515-70.185,116.826-156.775,116.826Z"
            transform="translate(-75.06 -87.4)"
          />
        </g>
      </svg>