<svg width="51" height="51" viewBox="0 0 51 51" fill="none" xmlns="http://www.w3.org/2000/svg">
<path d="M44.9837 0H6.01625C2.69357 0 0 2.69379 0 6.01674V44.9833C0 48.3062 2.69357 51 6.01625 51H44.9837C48.3064 51 51 48.3062 51 44.9833V6.01674C51 2.69379 48.3064 0 44.9837 0Z" fill="url(#paint0_linear_834_40999)"/>
<path d="M20.8115 23.9681C20.8115 23.9681 25.1412 23.6464 25.1412 18.5699C25.1412 13.4934 21.5991 11.015 17.1127 11.015H2.3504V39.3872H17.1127C17.1127 39.3872 26.1226 39.6718 26.1226 31.0116C26.1226 31.0116 26.5185 23.9681 20.8115 23.9681ZM8.85323 16.0585H17.1003C17.1003 16.0585 19.1085 16.0585 19.1085 19.0112C19.1085 21.9639 17.9292 22.3927 16.589 22.3927H8.85735L8.85323 16.0585ZM8.85735 34.3437V26.7641H17.1044C17.1044 26.7641 20.094 26.7228 20.094 30.6611C20.1023 33.9396 17.9168 34.3108 16.7333 34.3437H8.85735ZM38.1428 18.2359C27.2319 18.2359 27.2442 29.1353 27.2442 29.1353C27.2442 29.1353 26.4938 39.9811 38.1428 39.9811C38.1428 39.9811 47.8496 40.5337 47.8496 32.4385H42.8601C42.8601 32.4385 43.025 35.4902 38.3242 35.4902C38.3242 35.4902 33.3306 35.8242 33.3306 30.5415H48.031C48.031 30.5415 49.6268 18.2359 38.1428 18.2359ZM42.5797 26.7641H33.2605C33.2605 26.7641 33.8708 22.3927 38.2541 22.3927C42.6374 22.3927 42.5797 26.7641 42.5797 26.7641ZM32.0399 12.6893H43.7425V16.1822H32.0399V12.6893Z" fill="white"/>
<defs>
<linearGradient id="paint0_linear_834_40999" x1="25.5" y1="0" x2="25.5" y2="51.0041" gradientUnits="userSpaceOnUse">
<stop stop-color="#005CFF"/>
<stop offset="1" stop-color="#0047AD"/>
</linearGradient>
</defs>
</svg>
