<svg width="40" height="40" viewBox="0 0 40 40" fill="none" xmlns="http://www.w3.org/2000/svg">
<rect width="40" height="40" rx="20" fill="white"/>
<path d="M16 33C18.392 33 20.3334 31.0586 20.3334 28.6666V24.3333H16C13.608 24.3333 11.6666 26.2746 11.6666 28.6666C11.6666 31.0586 13.608 33 16 33Z" fill="#0ACF83"/>
<path d="M11.6666 19.9999C11.6666 17.6079 13.608 15.6665 16 15.6665H20.3334V24.3331H16C13.608 24.3332 11.6666 22.3919 11.6666 19.9999Z" fill="#A259FF"/>
<path d="M11.6666 11.3334C11.6666 8.94137 13.608 7 16 7H20.3334V15.6666H16C13.608 15.6666 11.6666 13.7254 11.6666 11.3334Z" fill="#F24E1E"/>
<path d="M20.3333 7H24.6667C27.0587 7 29.0001 8.94137 29.0001 11.3334C29.0001 13.7254 27.0587 15.6666 24.6667 15.6666H20.3333V7Z" fill="#FF7262"/>
<path d="M29.0001 19.9999C29.0001 22.3919 27.0587 24.3332 24.6667 24.3332C22.2746 24.3332 20.3333 22.3919 20.3333 19.9999C20.3333 17.6079 22.2746 15.6665 24.6667 15.6665C27.0587 15.6665 29.0001 17.6079 29.0001 19.9999Z" fill="#1ABCFE"/>
</svg>
