<svg width="1328" height="40" viewBox="0 0 1328 40" fill="none" xmlns="http://www.w3.org/2000/svg">
<g id="Socials">
<g id="Facebook">
<rect width="40" height="40" rx="20" fill="#1877F2"/>
<path id="Vector" d="M27.7852 25.7812L28.6719 20H23.125V16.25C23.125 14.668 23.8984 13.125 26.3828 13.125H28.9062V8.20312C28.9062 8.20312 26.6172 7.8125 24.4297 7.8125C19.8594 7.8125 16.875 10.582 16.875 15.5938V20H11.7969V25.7812H16.875V39.7578C17.8945 39.918 18.9375 40 20 40C21.0625 40 22.1055 39.918 23.125 39.7578V25.7812H27.7852Z" fill="white"/>
</g>
<g id="Twitter">
<rect x="56" width="40" height="40" rx="20" fill="#1D9BF0"/>
<path id="Vector_2" d="M72.34 30.55C81.21 30.55 86.06 23.2 86.06 16.83C86.06 16.62 86.06 16.41 86.05 16.21C86.99 15.53 87.81 14.68 88.46 13.71C87.6 14.09 86.67 14.35 85.69 14.47C86.69 13.87 87.45 12.93 87.81 11.8C86.88 12.35 85.85 12.75 84.75 12.97C83.87 12.03 82.62 11.45 81.23 11.45C78.57 11.45 76.41 13.61 76.41 16.27C76.41 16.65 76.45 17.02 76.54 17.37C72.53 17.17 68.98 15.25 66.6 12.33C66.19 13.04 65.95 13.87 65.95 14.75C65.95 16.42 66.8 17.9 68.1 18.76C67.31 18.74 66.57 18.52 65.92 18.16C65.92 18.18 65.92 18.2 65.92 18.22C65.92 20.56 67.58 22.5 69.79 22.95C69.39 23.06 68.96 23.12 68.52 23.12C68.21 23.12 67.91 23.09 67.61 23.03C68.22 24.95 70 26.34 72.11 26.38C70.46 27.67 68.38 28.44 66.12 28.44C65.73 28.44 65.35 28.42 64.97 28.37C67.08 29.75 69.62 30.55 72.34 30.55Z" fill="white"/>
</g>
<g id="Instagram">
<g clip-path="url(#clip0_210_86159)">
<rect x="112" width="40" height="40" rx="20" fill="url(#paint0_radial_210_86159)"/>
<path id="Vector_3" d="M132 40C120.954 40 112 31.0457 112 20C112 8.95431 120.954 0 132 0C143.046 0 152 8.95431 152 20C152 31.0457 143.046 40 132 40Z" fill="url(#paint1_radial_210_86159)"/>
<path id="Vector_4" d="M132.003 10.163C135.21 10.163 135.586 10.1773 136.853 10.2345C138.026 10.2869 138.659 10.4823 139.083 10.649C139.645 10.8682 140.046 11.1255 140.465 11.5447C140.884 11.964 141.146 12.3642 141.361 12.9264C141.523 13.3504 141.723 13.9841 141.775 15.1562C141.832 16.4235 141.847 16.7999 141.847 20.0064C141.847 23.2128 141.832 23.5892 141.775 24.8565C141.723 26.0286 141.527 26.6623 141.361 27.0863C141.141 27.6485 140.884 28.0487 140.465 28.468C140.046 28.8872 139.645 29.1493 139.083 29.3637C138.659 29.5257 138.026 29.7258 136.853 29.7782C135.586 29.8354 135.21 29.8497 132.003 29.8497C128.797 29.8497 128.42 29.8354 127.153 29.7782C125.981 29.7258 125.347 29.5304 124.923 29.3637C124.361 29.1445 123.961 28.8872 123.542 28.468C123.122 28.0487 122.86 27.6485 122.646 27.0863C122.484 26.6623 122.284 26.0286 122.231 24.8565C122.174 23.5892 122.16 23.2128 122.16 20.0064C122.16 16.7999 122.174 16.4235 122.231 15.1562C122.284 13.9841 122.479 13.3504 122.646 12.9264C122.865 12.3642 123.122 11.964 123.542 11.5447C123.961 11.1255 124.361 10.8634 124.923 10.649C125.347 10.487 125.981 10.2869 127.153 10.2345C128.42 10.1726 128.802 10.163 132.003 10.163ZM132.003 8C128.744 8 128.335 8.01429 127.053 8.07147C125.776 8.12864 124.904 8.33351 124.142 8.6289C123.351 8.93383 122.684 9.34833 122.017 10.0154C121.35 10.6824 120.94 11.3542 120.631 12.1403C120.335 12.9026 120.13 13.7745 120.073 15.0561C120.016 16.333 120.002 16.7427 120.002 20.0016C120.002 23.2605 120.016 23.6702 120.073 24.9518C120.13 26.2287 120.335 27.1006 120.631 27.8677C120.936 28.6585 121.35 29.3256 122.017 29.9926C122.684 30.6596 123.356 31.0693 124.142 31.379C124.904 31.6744 125.776 31.8793 127.058 31.9365C128.339 31.9936 128.744 32.0079 132.008 32.0079C135.272 32.0079 135.677 31.9936 136.958 31.9365C138.235 31.8793 139.107 31.6744 139.874 31.379C140.665 31.0741 141.332 30.6596 141.999 29.9926C142.666 29.3256 143.076 28.6538 143.386 27.8677C143.681 27.1053 143.886 26.2335 143.943 24.9518C144 23.6702 144.014 23.2652 144.014 20.0016C144.014 16.738 144 16.333 143.943 15.0513C143.886 13.7745 143.681 12.9026 143.386 12.1355C143.081 11.3446 142.666 10.6776 141.999 10.0106C141.332 9.34357 140.66 8.93383 139.874 8.62414C139.112 8.32875 138.24 8.12388 136.958 8.0667C135.672 8.01429 135.262 8 132.003 8Z" fill="white"/>
<path id="Vector_5" d="M132.003 13.8411C128.601 13.8411 125.838 16.5997 125.838 20.0062C125.838 23.4128 128.596 26.1714 132.003 26.1714C135.41 26.1714 138.168 23.4128 138.168 20.0062C138.168 16.5997 135.41 13.8411 132.003 13.8411ZM132.003 24.0036C129.792 24.0036 128.001 22.2122 128.001 20.0015C128.001 17.7908 129.792 15.9993 132.003 15.9993C134.214 15.9993 136.005 17.7908 136.005 20.0015C136.005 22.2122 134.214 24.0036 132.003 24.0036Z" fill="white"/>
<path id="Vector_6" d="M138.411 15.0323C139.206 15.0323 139.85 14.3881 139.85 13.5934C139.85 12.7987 139.206 12.1545 138.411 12.1545C137.617 12.1545 136.972 12.7987 136.972 13.5934C136.972 14.3881 137.617 15.0323 138.411 15.0323Z" fill="white"/>
</g>
</g>
<g id="LinkedIn">
<rect x="168" width="40" height="40" rx="20" fill="#0A66C2"/>
<path id="Vector_7" d="M197.376 9H178.624C178.193 9 177.78 9.1711 177.476 9.47567C177.171 9.78023 177 10.1933 177 10.624V29.376C177 29.8067 177.171 30.2198 177.476 30.5243C177.78 30.8289 178.193 31 178.624 31H197.376C197.807 31 198.22 30.8289 198.524 30.5243C198.829 30.2198 199 29.8067 199 29.376V10.624C199 10.1933 198.829 9.78023 198.524 9.47567C198.22 9.1711 197.807 9 197.376 9ZM183.557 27.7413H180.25V17.2347H183.557V27.7413ZM181.901 15.7788C181.526 15.7766 181.16 15.6634 180.849 15.4534C180.538 15.2434 180.296 14.946 180.154 14.5987C180.012 14.2514 179.976 13.8699 180.051 13.5022C180.125 13.1345 180.307 12.7971 180.573 12.5326C180.839 12.2682 181.178 12.0885 181.546 12.0163C181.914 11.944 182.296 11.9825 182.642 12.1267C182.988 12.271 183.284 12.5147 183.492 12.8269C183.7 13.1392 183.811 13.5061 183.811 13.8813C183.814 14.1324 183.767 14.3818 183.672 14.6144C183.578 14.847 183.437 15.0582 183.259 15.2352C183.08 15.4123 182.868 15.5517 182.635 15.6451C182.402 15.7384 182.152 15.7839 181.901 15.7788ZM195.749 27.7504H192.443V22.0106C192.443 20.3178 191.723 19.7953 190.794 19.7953C189.813 19.7953 188.851 20.5347 188.851 22.0533V27.7504H185.543V17.2424H188.724V18.6983H188.767C189.086 18.0521 190.205 16.9475 191.911 16.9475C193.757 16.9475 195.75 18.0429 195.75 21.2513L195.749 27.7504Z" fill="white"/>
</g>
<g id="Snapchat">
<rect x="224" width="40" height="40" rx="20" fill="#FFFC00"/>
<g id="Group">
<path id="Vector_8" d="M254.43 26.3893C250.525 24.4988 249.902 21.5798 249.875 21.3633C249.841 21.1011 249.803 20.8949 250.092 20.6281C250.371 20.3704 251.609 19.6042 251.953 19.3645C252.52 18.9676 252.77 18.5713 252.586 18.0842C252.457 17.7472 252.143 17.6203 251.813 17.6203C251.709 17.6206 251.605 17.6323 251.503 17.6551C250.879 17.7904 250.274 18.1029 249.923 18.1873C249.881 18.1982 249.838 18.204 249.794 18.2047C249.607 18.2047 249.536 18.1216 249.554 17.8967C249.598 17.215 249.691 15.8844 249.583 14.6414C249.436 12.9313 248.884 12.084 248.23 11.3346C247.914 10.9712 246.445 9.40991 243.61 9.40991C240.774 9.40991 239.307 10.9712 238.993 11.3301C238.337 12.0795 237.786 12.9268 237.64 14.6369C237.532 15.8799 237.629 17.2098 237.669 17.8922C237.682 18.1061 237.616 18.2002 237.429 18.2002C237.385 18.1994 237.342 18.1936 237.3 18.1828C236.95 18.0984 236.345 17.7859 235.721 17.6506C235.619 17.6278 235.515 17.6161 235.411 17.6158C235.079 17.6158 234.767 17.7446 234.638 18.0797C234.453 18.5668 234.702 18.9631 235.272 19.36C235.615 19.5997 236.853 20.3652 237.132 20.6236C237.421 20.8904 237.383 21.0966 237.35 21.3588C237.322 21.5785 236.699 24.4975 232.794 26.3848C232.565 26.4956 232.176 26.7302 232.862 27.109C233.94 27.7044 234.657 27.6406 235.214 27.9995C235.687 28.3043 235.408 28.9616 235.752 29.1987C236.174 29.4906 237.424 29.1781 239.038 29.7109C240.391 30.1568 241.213 31.4165 243.613 31.4165C246.012 31.4165 246.858 30.151 248.188 29.7109C249.799 29.1781 251.051 29.4906 251.474 29.1987C251.817 28.9616 251.538 28.3043 252.011 27.9995C252.569 27.6406 253.285 27.7044 254.363 27.109C255.048 26.7347 254.659 26.5001 254.43 26.3893Z" fill="white"/>
<path id="Vector_9" d="M256.129 26.1669C255.954 25.6901 255.62 25.4349 255.24 25.2236C255.169 25.1817 255.103 25.1482 255.047 25.1224C254.934 25.0638 254.818 25.0071 254.702 24.9471C253.517 24.3189 252.592 23.5263 251.95 22.5869C251.768 22.3224 251.61 22.042 251.478 21.7492C251.423 21.5926 251.426 21.5037 251.465 21.4225C251.504 21.36 251.556 21.3062 251.616 21.2647C251.82 21.13 252.03 20.9934 252.173 20.9013C252.426 20.7369 252.627 20.6068 252.757 20.5146C253.243 20.1744 253.584 19.8129 253.796 19.4089C253.945 19.1298 254.031 18.822 254.05 18.5065C254.069 18.1909 254.019 17.875 253.905 17.5803C253.583 16.7323 252.782 16.2058 251.812 16.2058C251.607 16.2057 251.403 16.2273 251.203 16.2703C251.149 16.2819 251.096 16.2941 251.044 16.3077C251.053 15.7277 251.04 15.1156 250.988 14.5131C250.805 12.3951 250.064 11.2849 249.29 10.3996C248.795 9.84478 248.212 9.37541 247.564 9.01035C246.391 8.34022 245.06 8 243.61 8C242.159 8 240.835 8.34022 239.66 9.01035C239.011 9.37552 238.427 9.84583 237.931 10.4022C237.158 11.2875 236.416 12.3996 236.233 14.5157C236.182 15.1182 236.169 15.7335 236.177 16.3102C236.125 16.2967 236.072 16.2845 236.019 16.2729C235.818 16.2298 235.614 16.2082 235.41 16.2084C234.439 16.2084 233.636 16.7349 233.316 17.5828C233.201 17.8777 233.151 18.1938 233.169 18.5097C233.188 18.8256 233.274 19.1338 233.422 19.4134C233.635 19.8174 233.975 20.1789 234.462 20.5192C234.591 20.6094 234.792 20.7395 235.046 20.9058C235.183 20.9947 235.384 21.1248 235.58 21.255C235.649 21.2995 235.708 21.3581 235.752 21.427C235.793 21.5115 235.794 21.6023 235.733 21.7698C235.603 22.0565 235.447 22.331 235.269 22.5901C234.641 23.5083 233.743 24.2867 232.596 24.9098C231.988 25.232 231.357 25.4472 231.09 26.1721C230.889 26.7191 231.02 27.3416 231.531 27.8661C231.719 28.0618 231.936 28.2265 232.176 28.3538C232.674 28.6275 233.203 28.8393 233.752 28.9847C233.866 29.0139 233.973 29.062 234.071 29.1271C234.257 29.2901 234.23 29.5356 234.479 29.8951C234.603 30.081 234.761 30.2418 234.945 30.3694C235.466 30.7289 236.051 30.7515 236.671 30.7753C237.231 30.7966 237.865 30.8211 238.59 31.0601C238.89 31.1594 239.202 31.3514 239.564 31.5756C240.432 32.1091 241.62 32.8392 243.608 32.8392C245.597 32.8392 246.793 32.1053 247.668 31.5698C248.027 31.3494 248.337 31.1594 248.629 31.0627C249.353 30.823 249.988 30.7992 250.548 30.7779C251.168 30.7541 251.753 30.7315 252.274 30.372C252.491 30.2202 252.673 30.0222 252.805 29.792C252.983 29.4886 252.979 29.2766 253.146 29.1284C253.237 29.0664 253.339 29.0203 253.445 28.9918C254.002 28.846 254.539 28.6322 255.043 28.3551C255.297 28.2187 255.526 28.0396 255.72 27.8255L255.726 27.8177C256.206 27.3048 256.326 26.7004 256.129 26.1669ZM254.362 27.1167C253.284 27.7121 252.568 27.6483 252.01 28.0072C251.537 28.312 251.817 28.9692 251.473 29.2063C251.05 29.4982 249.801 29.1857 248.187 29.7186C246.855 30.1587 246.006 31.4242 243.612 31.4242C241.217 31.4242 240.388 30.1613 239.035 29.7154C237.424 29.1825 236.172 29.495 235.749 29.2031C235.405 28.966 235.684 28.3087 235.211 28.004C234.653 27.6451 233.937 27.7088 232.859 27.1167C232.173 26.7378 232.562 26.5033 232.791 26.3924C236.696 24.5019 237.319 21.583 237.347 21.3665C237.38 21.1042 237.417 20.898 237.129 20.6313C236.85 20.3735 235.612 19.6074 235.269 19.3677C234.7 18.9708 234.45 18.5745 234.634 18.0874C234.763 17.7504 235.078 17.6234 235.408 17.6234C235.512 17.6237 235.616 17.6354 235.718 17.6582C236.341 17.7935 236.947 18.106 237.297 18.1905C237.339 18.2013 237.382 18.2071 237.426 18.2079C237.613 18.2079 237.678 18.1138 237.666 17.8999C237.626 17.2175 237.529 15.8875 237.637 14.6446C237.784 12.9345 238.335 12.0871 238.99 11.3378C239.304 10.9776 240.782 9.41629 243.607 9.41629C246.433 9.41629 247.914 10.9711 248.228 11.33C248.884 12.0794 249.435 12.9267 249.582 14.6368C249.689 15.8798 249.596 17.2104 249.553 17.8921C249.538 18.117 249.605 18.2001 249.792 18.2001C249.836 18.1994 249.879 18.1936 249.921 18.1827C250.272 18.0983 250.877 17.7858 251.501 17.6505C251.603 17.6277 251.707 17.616 251.811 17.6157C252.143 17.6157 252.455 17.7446 252.584 18.0796C252.769 18.5668 252.52 18.963 251.951 19.36C251.607 19.5997 250.37 20.3651 250.091 20.6235C249.801 20.8903 249.839 21.0965 249.873 21.3587C249.901 21.5785 250.523 24.4974 254.428 26.3847C254.659 26.5 255.048 26.7346 254.362 27.1167Z" fill="black"/>
</g>
</g>
<g id="Pinterest">
<rect x="280" width="40" height="40" rx="20" fill="#BD081C"/>
<path id="Vector_10" d="M299.995 8C293.361 8 288 13.3706 288 19.9951C288 25.0794 291.159 29.4233 295.622 31.1707C295.513 30.2229 295.424 28.7618 295.661 27.7252C295.878 26.7873 297.063 21.7622 297.063 21.7622C297.063 21.7622 296.708 21.0416 296.708 19.9852C296.708 18.3167 297.675 17.0728 298.879 17.0728C299.906 17.0728 300.4 17.8429 300.4 18.761C300.4 19.7877 299.748 21.3278 299.403 22.7594C299.116 23.9539 300.005 24.9313 301.18 24.9313C303.312 24.9313 304.951 22.6804 304.951 19.4422C304.951 16.5693 302.888 14.5652 299.936 14.5652C296.52 14.5652 294.516 17.1222 294.516 19.768C294.516 20.7947 294.911 21.9004 295.404 22.5027C295.503 22.6211 295.513 22.7297 295.483 22.8482C295.394 23.2234 295.187 24.0428 295.148 24.2106C295.098 24.4278 294.97 24.4772 294.743 24.3686C293.262 23.6577 292.334 21.4661 292.334 19.7088C292.334 15.9276 295.079 12.4525 300.262 12.4525C304.418 12.4525 307.656 15.4142 307.656 19.383C307.656 23.5195 305.05 26.8466 301.436 26.8466C300.222 26.8466 299.077 26.2147 298.692 25.4644C298.692 25.4644 298.09 27.7548 297.942 28.3176C297.675 29.3641 296.944 30.6672 296.451 31.4669C297.576 31.8124 298.761 32 300.005 32C306.629 32 312 26.6294 312 20.0049C311.99 13.3706 306.619 8 299.995 8Z" fill="white"/>
</g>
<g id="YouTube">
<rect x="336" width="40" height="40" rx="20" fill="#FF0000"/>
<g id="Group_2">
<path id="Vector_11" d="M369.698 13.1304C369.369 11.9065 368.404 10.9415 367.18 10.612C364.944 10 356 10 356 10C356 10 347.056 10 344.82 10.5884C343.619 10.9179 342.631 11.9065 342.301 13.1304C341.713 15.3664 341.713 20.0032 341.713 20.0032C341.713 20.0032 341.713 24.6636 342.301 26.876C342.631 28.1 343.596 29.065 344.82 29.3945C347.079 30.0065 356 30.0065 356 30.0065C356 30.0065 364.944 30.0065 367.18 29.418C368.404 29.0885 369.369 28.1235 369.698 26.8996C370.287 24.6636 370.287 20.0268 370.287 20.0268C370.287 20.0268 370.31 15.3664 369.698 13.1304Z" fill="white"/>
<path id="Vector_12" d="M353.152 24.287L360.59 20.0032L353.152 15.7195V24.287Z" fill="#FF0000"/>
</g>
</g>
<g id="Medium">
<rect x="392" width="40" height="40" rx="20" fill="black"/>
<g id="Group_3">
<path id="Vector_13" d="M413.887 20.3794C413.887 25.0071 410.168 28.7586 405.58 28.7586C400.992 28.7586 397.273 25.0063 397.273 20.3794C397.273 15.7526 400.992 12 405.58 12C410.168 12 413.887 15.7518 413.887 20.3794Z" fill="white"/>
<path id="Vector_14" d="M423 20.3793C423 24.7353 421.14 28.2679 418.846 28.2679C416.552 28.2679 414.693 24.7353 414.693 20.3793C414.693 16.0233 416.552 12.4907 418.846 12.4907C421.14 12.4907 423 16.0222 423 20.3793" fill="white"/>
<path id="Vector_15" d="M426.727 20.3794C426.727 24.2813 426.073 27.4464 425.266 27.4464C424.46 27.4464 423.806 24.2822 423.806 20.3794C423.806 16.4767 424.46 13.3125 425.266 13.3125C426.073 13.3125 426.727 16.4764 426.727 20.3794Z" fill="white"/>
</g>
</g>
<g id="Reddit" clip-path="url(#clip1_210_86159)">
<g id="Group_4">
<path id="Vector_16" d="M468 40C479.046 40 488 31.0457 488 20C488 8.9543 479.046 0 468 0C456.954 0 448 8.9543 448 20C448 31.0457 456.954 40 468 40Z" fill="#FF4500"/>
<path id="Vector_17" d="M481.333 20.0001C481.333 18.386 480.023 17.0761 478.409 17.0761C477.614 17.0761 476.912 17.3802 476.398 17.8948C474.409 16.4679 471.649 15.5322 468.608 15.4153L469.941 9.16965L474.269 10.0819C474.316 11.1813 475.228 12.0702 476.351 12.0702C477.497 12.0702 478.433 11.1346 478.433 9.98837C478.433 8.84217 477.497 7.90649 476.351 7.90649C475.532 7.90649 474.83 8.37433 474.503 9.07608L469.661 8.04685C469.52 8.02345 469.38 8.04685 469.263 8.11702C469.146 8.1872 469.076 8.30416 469.029 8.44451L467.555 15.4153C464.444 15.5088 461.661 16.4211 459.649 17.8948C459.134 17.4036 458.409 17.0761 457.637 17.0761C456.023 17.0761 454.713 18.386 454.713 20.0001C454.713 21.193 455.415 22.1989 456.444 22.6667C456.398 22.9474 456.374 23.2515 456.374 23.5556C456.374 28.0468 461.591 31.6726 468.047 31.6726C474.503 31.6726 479.719 28.0468 479.719 23.5556C479.719 23.2515 479.696 22.9708 479.649 22.6901C480.608 22.2223 481.333 21.193 481.333 20.0001ZM461.333 22.0819C461.333 20.9357 462.269 20.0001 463.415 20.0001C464.561 20.0001 465.497 20.9357 465.497 22.0819C465.497 23.2281 464.561 24.1638 463.415 24.1638C462.269 24.1638 461.333 23.2281 461.333 22.0819ZM472.959 27.579C471.532 29.0059 468.819 29.0995 468.023 29.0995C467.228 29.0995 464.491 28.9825 463.088 27.579C462.877 27.3685 462.877 27.0176 463.088 26.8071C463.298 26.5966 463.649 26.5966 463.86 26.8071C464.748 27.696 466.667 28.0235 468.047 28.0235C469.427 28.0235 471.322 27.696 472.234 26.8071C472.444 26.5966 472.795 26.5966 473.006 26.8071C473.17 27.041 473.17 27.3685 472.959 27.579ZM472.585 24.1638C471.439 24.1638 470.503 23.2281 470.503 22.0819C470.503 20.9357 471.439 20.0001 472.585 20.0001C473.731 20.0001 474.667 20.9357 474.667 22.0819C474.667 23.2281 473.731 24.1638 472.585 24.1638Z" fill="white"/>
</g>
</g>
<g id="Discord">
<rect x="504" width="40" height="40" rx="20" fill="#5865F2"/>
<path id="Vector_18" d="M533.703 10.8237C531.919 9.97958 530.005 9.35768 528.004 9.00149C527.967 8.99462 527.931 9.0118 527.912 9.04616C527.666 9.4974 527.394 10.0861 527.203 10.5488C525.05 10.2167 522.909 10.2167 520.801 10.5488C520.61 10.0758 520.328 9.4974 520.081 9.04616C520.062 9.01295 520.025 8.99577 519.989 9.00149C517.989 9.35654 516.075 9.97844 514.29 10.8237C514.274 10.8306 514.261 10.842 514.252 10.8569C510.622 16.4471 509.628 21.9 510.116 27.2852C510.118 27.3116 510.132 27.3368 510.152 27.3528C512.547 29.1658 514.867 30.2664 517.144 30.996C517.18 31.0075 517.219 30.9937 517.242 30.9628C517.781 30.2046 518.261 29.4052 518.672 28.5645C518.697 28.5153 518.673 28.4569 518.624 28.4374C517.862 28.1396 517.137 27.7765 516.44 27.3642C516.385 27.331 516.38 27.2497 516.431 27.2107C516.578 27.0974 516.724 26.9794 516.865 26.8603C516.89 26.8385 516.925 26.8339 516.955 26.8477C521.537 29.0043 526.498 29.0043 531.027 26.8477C531.057 26.8328 531.092 26.8374 531.118 26.8591C531.259 26.9783 531.405 27.0974 531.553 27.2107C531.604 27.2497 531.601 27.331 531.546 27.3642C530.848 27.7845 530.123 28.1396 529.36 28.4362C529.311 28.4557 529.289 28.5153 529.313 28.5645C529.733 29.404 530.213 30.2034 530.742 30.9616C530.764 30.9937 530.804 31.0075 530.84 30.996C533.128 30.2664 535.448 29.1658 537.843 27.3528C537.864 27.3368 537.877 27.3127 537.879 27.2864C538.463 21.0604 536.902 15.6523 533.74 10.858C533.732 10.842 533.719 10.8306 533.703 10.8237ZM519.357 24.0062C517.977 24.0062 516.84 22.7005 516.84 21.0971C516.84 19.4937 517.955 18.188 519.357 18.188C520.769 18.188 521.895 19.5051 521.873 21.0971C521.873 22.7005 520.758 24.0062 519.357 24.0062ZM528.661 24.0062C527.281 24.0062 526.144 22.7005 526.144 21.0971C526.144 19.4937 527.259 18.188 528.661 18.188C530.073 18.188 531.199 19.5051 531.177 21.0971C531.177 22.7005 530.073 24.0062 528.661 24.0062Z" fill="white"/>
</g>
<g id="TikTok">
<rect x="560" width="40" height="40" rx="20" fill="black"/>
<g id="Group_5">
<path id="Vector_19" d="M585.577 16.1073C587.378 17.399 589.584 18.159 591.966 18.159V13.5583C591.515 13.5584 591.066 13.5112 590.625 13.4174V17.0388C588.242 17.0388 586.037 16.2788 584.236 14.9872V24.3759C584.236 29.0726 580.442 32.8798 575.762 32.8798C574.016 32.8798 572.393 32.35 571.045 31.4415C572.584 33.0204 574.73 33.9999 577.104 33.9999C581.784 33.9999 585.578 30.1927 585.578 25.4958V16.1073H585.577V16.1073ZM587.233 11.4657C586.312 10.4568 585.708 9.15304 585.577 7.71162V7.11987H584.306C584.626 8.95191 585.718 10.5171 587.233 11.4657ZM574.005 27.8373C573.491 27.1608 573.213 26.3333 573.214 25.4824C573.214 23.3343 574.949 21.5926 577.09 21.5926C577.489 21.5925 577.886 21.6538 578.266 21.7748V17.0713C577.822 17.0102 577.373 16.9842 576.925 16.9938V20.6548C576.545 20.5337 576.148 20.4722 575.749 20.4726C573.608 20.4726 571.873 22.2141 571.873 24.3625C571.873 25.8815 572.74 27.1967 574.005 27.8373Z" fill="#FF004F"/>
<path id="Vector_20" d="M584.236 14.9871C586.037 16.2787 588.242 17.0387 590.624 17.0387V13.4173C589.295 13.1331 588.118 12.4357 587.233 11.4657C585.718 10.517 584.626 8.95182 584.306 7.11987H580.966V25.4956C580.959 27.6378 579.226 29.3724 577.09 29.3724C575.831 29.3724 574.713 28.7702 574.004 27.8373C572.74 27.1967 571.872 25.8814 571.872 24.3626C571.872 22.2144 573.608 20.4727 575.748 20.4727C576.159 20.4727 576.554 20.5368 576.925 20.6549V16.9939C572.327 17.0892 568.63 20.8592 568.63 25.4957C568.63 27.8102 569.551 29.9085 571.045 31.4416C572.393 32.35 574.016 32.8799 575.762 32.8799C580.442 32.8799 584.236 29.0725 584.236 24.3759V14.9871H584.236Z" fill="white"/>
<path id="Vector_21" d="M590.624 13.4174V12.4382C589.425 12.4401 588.25 12.1031 587.233 11.4658C588.133 12.4552 589.319 13.1375 590.624 13.4174ZM584.306 7.11998C584.275 6.9449 584.252 6.76866 584.236 6.59175V6H579.625V24.3759C579.617 26.5179 577.885 28.2525 575.748 28.2525C575.121 28.2525 574.529 28.1031 574.005 27.8375C574.713 28.7703 575.831 29.3725 577.09 29.3725C579.226 29.3725 580.959 27.6381 580.966 25.4958V7.11998H584.306ZM576.925 16.994V15.9515C576.54 15.8987 576.151 15.8722 575.762 15.8724C571.082 15.8723 567.288 19.6796 567.288 24.3759C567.288 27.3203 568.779 29.9151 571.045 31.4415C569.551 29.9085 568.63 27.8102 568.63 25.4957C568.63 20.8593 572.327 17.0893 576.925 16.994Z" fill="#00F2EA"/>
</g>
</g>
<g id="Google">
<rect x="616" width="40" height="40" rx="20" fill="white"/>
<g id="Group_6">
<path id="Shape" fill-rule="evenodd" clip-rule="evenodd" d="M648.34 20.2956C648.34 19.3737 648.257 18.4874 648.104 17.6365H635.86V22.6651H642.856C642.555 24.2901 641.639 25.6669 640.262 26.5887V29.8506H644.464C646.922 27.5874 648.34 24.2547 648.34 20.2956Z" fill="#4285F4"/>
<path id="Shape_2" fill-rule="evenodd" clip-rule="evenodd" d="M635.86 33C639.37 33 642.313 31.8359 644.464 29.8504L640.262 26.5886C639.098 27.3686 637.609 27.8295 635.86 27.8295C632.474 27.8295 629.608 25.5427 628.586 22.47H624.243V25.8382C626.382 30.0868 630.778 33 635.86 33Z" fill="#34A853"/>
<path id="Shape_3" fill-rule="evenodd" clip-rule="evenodd" d="M628.586 22.47C628.326 21.69 628.178 20.8569 628.178 20C628.178 19.1432 628.326 18.31 628.586 17.53V14.1619H624.243C623.362 15.9169 622.86 17.9023 622.86 20C622.86 22.0978 623.362 24.0832 624.243 25.8382L628.586 22.47Z" fill="#FBBC05"/>
<path id="Shape_4" fill-rule="evenodd" clip-rule="evenodd" d="M635.86 12.1705C637.769 12.1705 639.482 12.8264 640.83 14.1145L644.558 10.3859C642.307 8.28818 639.364 7 635.86 7C630.778 7 626.382 9.91318 624.243 14.1618L628.586 17.53C629.608 14.4573 632.474 12.1705 635.86 12.1705Z" fill="#EA4335"/>
</g>
</g>
<g id="Apple">
<rect x="672" width="40" height="40" rx="20" fill="black"/>
<path id="Vector_22" d="M702.539 26.2619C702.144 27.1703 701.676 28.0064 701.135 28.7752C700.396 29.8231 699.792 30.5486 699.326 30.9514C698.604 31.6126 697.83 31.9512 697.001 31.9705C696.406 31.9705 695.689 31.802 694.854 31.4601C694.016 31.1199 693.246 30.9514 692.542 30.9514C691.803 30.9514 691.011 31.1199 690.164 31.4601C689.316 31.802 688.633 31.9801 688.11 31.9978C687.315 32.0315 686.523 31.6832 685.733 30.9514C685.228 30.5132 684.597 29.7622 683.841 28.6981C683.03 27.5619 682.363 26.2442 681.84 24.7421C681.281 23.1195 681 21.5483 681 20.0272C681 18.2848 681.378 16.782 682.136 15.5226C682.731 14.5111 683.523 13.7131 684.515 13.1273C685.506 12.5415 686.577 12.243 687.731 12.2239C688.362 12.2239 689.189 12.4183 690.218 12.8002C691.244 13.1835 691.902 13.3778 692.191 13.3778C692.407 13.3778 693.139 13.1506 694.379 12.6975C695.552 12.2774 696.542 12.1034 697.352 12.1719C699.55 12.3485 701.201 13.2108 702.299 14.7643C700.333 15.9497 699.361 17.6099 699.381 19.7398C699.398 21.3988 700.003 22.7793 701.191 23.8754C701.73 24.3842 702.331 24.7774 703 25.0566C702.855 25.4755 702.702 25.8767 702.539 26.2619V26.2619ZM697.499 6.52015C697.499 7.82044 697.022 9.03453 696.071 10.1583C694.923 11.4942 693.534 12.2661 692.029 12.1443C692.01 11.9883 691.999 11.8241 691.999 11.6516C691.999 10.4033 692.544 9.06743 693.514 7.97514C693.998 7.4221 694.613 6.96225 695.36 6.59542C696.105 6.23406 696.809 6.03422 697.472 6C697.491 6.17383 697.499 6.34767 697.499 6.52013V6.52015Z" fill="white"/>
</g>
<g id="Spotify">
<rect x="728" width="40" height="40" rx="20" fill="#1ED760"/>
<path id="Vector_23" d="M748 7C740.82 7 735 12.8199 735 20C735 27.1801 740.82 33 748 33C755.18 33 761 27.1801 761 20C761 12.8199 755.18 7 748 7ZM754.342 25.7403C754.134 26.11 753.75 26.318 753.354 26.318C753.168 26.318 752.977 26.2717 752.802 26.1742C751.179 25.2642 749.41 24.7068 747.541 24.5175C745.668 24.3298 743.818 24.5199 742.042 25.0871C741.449 25.2764 740.811 24.9489 740.622 24.355C740.43 23.7602 740.759 23.1241 741.354 22.9339C743.426 22.2718 745.587 22.0467 747.77 22.2685C749.948 22.4903 752.012 23.1403 753.907 24.2024C754.453 24.5061 754.648 25.1951 754.342 25.7403ZM755.898 21.7916C755.698 22.1783 755.304 22.4001 754.896 22.4001C754.719 22.4001 754.541 22.3595 754.374 22.2718C752.379 21.2326 750.224 20.5891 747.965 20.3599C745.688 20.1268 743.432 20.3299 741.258 20.9571C740.657 21.1277 740.031 20.7841 739.859 20.1836C739.686 19.584 740.033 18.9576 740.631 18.7845C743.086 18.0768 745.63 17.8501 748.193 18.1101C750.738 18.3693 753.168 19.0941 755.42 20.2673C755.971 20.5558 756.188 21.2382 755.898 21.7916ZM756.462 18.5066C756.292 18.5066 756.121 18.4684 755.958 18.388C753.59 17.2074 751.043 16.4721 748.386 16.2024C745.725 15.9302 743.078 16.1406 740.515 16.8248C739.912 16.9848 739.294 16.6273 739.132 16.0236C738.971 15.4207 739.329 14.8008 739.934 14.6399C742.761 13.8851 745.684 13.6552 748.617 13.9534C751.545 14.2499 754.354 15.0616 756.966 16.3641C757.525 16.6427 757.752 17.322 757.474 17.8802C757.277 18.2775 756.877 18.5066 756.462 18.5066Z" fill="white"/>
</g>
<g id="Twitch">
<rect x="784" width="40" height="40" rx="20" fill="#9146FF"/>
<g id="Group_7">
<path id="Vector_24" d="M814.209 20.541L810.495 24.2552H806.781L803.531 27.5052V24.2552H799.352V10.3267H814.209V20.541Z" fill="white"/>
<g id="Group_8">
<g id="Layer_1-2">
<path id="Vector_25" d="M798.423 8.46948L793.781 13.1123V29.8266H799.352V34.4695L803.995 29.8266H807.709L816.066 21.4695V8.46948H798.423ZM814.209 20.5409L810.495 24.2552H806.781L803.531 27.5052V24.2552H799.352V10.3266H814.209V20.5409Z" fill="black"/>
<path id="Vector_26" d="M811.423 13.5767H809.566V19.1481H811.423V13.5767Z" fill="black"/>
<path id="Vector_27" d="M806.316 13.5767H804.459V19.1481H806.316V13.5767Z" fill="black"/>
</g>
</g>
</g>
</g>
<g id="Skype">
<rect x="840" width="40" height="40" rx="20" fill="#0078D7"/>
<path id="Shape_5" d="M860.052 27.7325C855.784 27.7325 853.834 25.5582 853.834 23.9635C853.833 23.5831 853.989 23.2192 854.266 22.9575C854.542 22.6958 854.913 22.5593 855.293 22.5803C857.121 22.5803 856.643 25.3213 860.052 25.3213C861.795 25.3213 862.819 24.2723 862.819 23.2867C862.819 22.6945 862.48 22.0177 861.33 21.747L857.523 20.7867C854.464 20.0084 853.931 18.3079 853.931 16.7301C853.931 13.4561 856.926 12.2717 859.777 12.2717C862.404 12.2717 865.526 13.7226 865.526 15.6853C865.526 16.5313 864.819 16.9839 863.999 16.9839C862.438 16.9839 862.7 14.7928 859.561 14.7928C858 14.7928 857.18 15.5246 857.18 16.5482C857.18 17.5719 858.394 17.9188 859.46 18.1514L862.269 18.7859C865.348 19.4797 866.169 21.2859 866.169 23.016C866.169 25.6767 864.109 27.7325 860.048 27.7325H860.052ZM871.837 22.1023C871.959 21.4039 872.02 20.6962 872.019 19.9873C872.034 16.426 870.469 13.0415 867.746 10.7459C865.024 8.45037 861.423 7.48009 857.916 8.09664C856.838 7.47593 855.615 7.15056 854.371 7.15334C851.818 7.16894 849.464 8.53744 848.187 10.7488C846.911 12.9602 846.902 15.6828 848.166 17.9019C847.461 21.775 848.696 25.748 851.472 28.5393C854.248 31.3306 858.214 32.587 862.091 31.9033C863.168 32.5234 864.389 32.8488 865.631 32.8466C868.184 32.8301 870.536 31.4622 871.812 29.2522C873.089 27.0421 873.098 24.3211 871.837 22.1023Z" fill="white"/>
</g>
<g id="Dribbble">
<rect x="896" width="40" height="40" rx="20" fill="#EA4C89"/>
<g id="Group_9">
<path id="Vector_28" d="M916 33.5625C923.49 33.5625 929.563 27.4904 929.563 20C929.563 12.5096 923.49 6.4375 916 6.4375C908.51 6.4375 902.438 12.5096 902.438 20C902.438 27.4904 908.51 33.5625 916 33.5625Z" fill="#EA4C89"/>
<path id="Vector_29" fill-rule="evenodd" clip-rule="evenodd" d="M916 6C908.271 6 902 12.2712 902 20C902 27.7289 908.271 34 916 34C923.714 34 930 27.7289 930 20C930 12.2712 923.714 6 916 6ZM925.247 12.4534C926.918 14.4881 927.92 17.0846 927.95 19.8937C927.555 19.8178 923.607 19.013 919.629 19.5141C919.538 19.3167 919.462 19.1041 919.371 18.8916C919.128 18.3146 918.855 17.7224 918.581 17.1605C922.985 15.3688 924.989 12.7874 925.247 12.4534ZM916 8.06508C919.037 8.06508 921.816 9.20391 923.926 11.0716C923.714 11.3753 921.907 13.7896 917.655 15.3839C915.696 11.7852 913.525 8.83948 913.191 8.38395C914.087 8.17137 915.028 8.06508 916 8.06508ZM910.913 9.18872C911.232 9.61388 913.358 12.5748 915.347 16.0976C909.759 17.5857 904.824 17.5553 904.293 17.5553C905.067 13.8503 907.573 10.7679 910.913 9.18872ZM904.035 20.0152C904.035 19.8937 904.035 19.7722 904.035 19.6508C904.551 19.6659 910.351 19.7419 916.319 17.9501C916.668 18.6182 916.987 19.3015 917.291 19.9848C917.139 20.0304 916.972 20.076 916.82 20.1215C910.655 22.1106 907.375 27.5466 907.102 28.0022C905.204 25.8916 904.035 23.0825 904.035 20.0152ZM916 31.9653C913.236 31.9653 910.685 31.0239 908.666 29.4447C908.879 29.0044 911.308 24.3276 918.05 21.974C918.08 21.9588 918.095 21.9588 918.126 21.9436C919.811 26.3015 920.495 29.9609 920.677 31.0087C919.234 31.6312 917.655 31.9653 916 31.9653ZM922.666 29.9154C922.544 29.1866 921.907 25.6942 920.343 21.3969C924.093 20.8047 927.373 21.7766 927.783 21.9133C927.267 25.2386 925.354 28.1085 922.666 29.9154Z" fill="white"/>
</g>
</g>
<g id="Figma">
<rect x="952" width="40" height="40" rx="20" fill="white"/>
<g id="Group_10">
<path id="Vector_30" d="M968 33C970.392 33 972.333 31.0586 972.333 28.6666V24.3333H968C965.608 24.3333 963.667 26.2746 963.667 28.6666C963.667 31.0586 965.608 33 968 33Z" fill="#0ACF83"/>
<path id="Vector_31" d="M963.667 19.9999C963.667 17.6079 965.608 15.6665 968 15.6665H972.333V24.3331H968C965.608 24.3332 963.667 22.3919 963.667 19.9999Z" fill="#A259FF"/>
<path id="Vector_32" d="M963.667 11.3334C963.667 8.94137 965.608 7 968 7H972.333V15.6666H968C965.608 15.6666 963.667 13.7254 963.667 11.3334Z" fill="#F24E1E"/>
<path id="Vector_33" d="M972.333 7H976.667C979.059 7 981 8.94137 981 11.3334C981 13.7254 979.059 15.6666 976.667 15.6666H972.333V7Z" fill="#FF7262"/>
<path id="Vector_34" d="M981 19.9999C981 22.3919 979.059 24.3332 976.667 24.3332C974.275 24.3332 972.333 22.3919 972.333 19.9999C972.333 17.6079 974.275 15.6665 976.667 15.6665C979.059 15.6665 981 17.6079 981 19.9999Z" fill="#1ABCFE"/>
</g>
</g>
<g id="Github">
<rect x="1008" width="40" height="40" rx="20" fill="#191717"/>
<g id="Group_11">
<path id="Vector_35" fill-rule="evenodd" clip-rule="evenodd" d="M1028 7C1024.75 7.00169 1021.6 8.15263 1019.13 10.247C1016.65 12.3414 1015.01 15.2427 1014.49 18.4321C1013.97 21.6215 1014.61 24.8911 1016.29 27.6561C1017.97 30.4211 1020.58 32.5013 1023.67 33.5248C1024.35 33.651 1024.6 33.2295 1024.6 32.8712C1024.6 32.5128 1024.59 31.4738 1024.58 30.3379C1020.78 31.1606 1019.97 28.731 1019.97 28.731C1019.35 27.1533 1018.45 26.7386 1018.45 26.7386C1017.21 25.8957 1018.55 25.9115 1018.55 25.9115C1019.92 26.0084 1020.64 27.3156 1020.64 27.3156C1021.86 29.3958 1023.85 28.7941 1024.63 28.4425C1024.75 27.5613 1025.11 26.9618 1025.5 26.6214C1022.46 26.2789 1019.26 25.1114 1019.26 19.8961C1019.24 18.5436 1019.75 17.2356 1020.67 16.2428C1020.53 15.9002 1020.06 14.5164 1020.8 12.6367C1020.8 12.6367 1021.95 12.2716 1024.57 14.0318C1026.81 13.4217 1029.18 13.4217 1031.42 14.0318C1034.04 12.2716 1035.18 12.6367 1035.18 12.6367C1035.93 14.5119 1035.46 15.8957 1035.32 16.2428C1036.25 17.2358 1036.75 18.546 1036.73 19.9007C1036.73 25.1272 1033.53 26.2789 1030.48 26.6147C1030.97 27.0384 1031.41 27.8655 1031.41 29.1367C1031.41 30.9577 1031.39 32.4227 1031.39 32.8712C1031.39 33.234 1031.64 33.6577 1032.33 33.5248C1035.42 32.5012 1038.03 30.4206 1039.71 27.6551C1041.39 24.8896 1042.03 21.6196 1041.51 18.4299C1040.99 15.2402 1039.34 12.3389 1036.87 10.2449C1034.39 8.15081 1031.25 7.00062 1028 7H1028Z" fill="white"/>
<path id="Vector_36" d="M1019.49 26.5425C1019.46 26.6101 1019.35 26.6304 1019.26 26.5831C1019.18 26.5358 1019.11 26.4479 1019.14 26.378C1019.17 26.3081 1019.28 26.2901 1019.37 26.3374C1019.46 26.3847 1019.52 26.4749 1019.49 26.5425Z" fill="white"/>
<path id="Vector_37" d="M1020.05 27.1577C1020 27.1812 1019.94 27.1878 1019.89 27.1763C1019.84 27.1648 1019.8 27.1359 1019.76 27.0946C1019.68 26.9999 1019.66 26.8692 1019.73 26.8106C1019.79 26.752 1019.92 26.7791 1020 26.8737C1020.09 26.9684 1020.11 27.0991 1020.05 27.1577Z" fill="white"/>
<path id="Vector_38" d="M1020.59 27.9399C1020.5 27.9985 1020.36 27.9399 1020.28 27.8227C1020.26 27.8017 1020.24 27.7764 1020.23 27.7486C1020.22 27.7207 1020.21 27.6907 1020.21 27.6604C1020.21 27.6301 1020.22 27.6001 1020.23 27.5722C1020.24 27.5444 1020.26 27.5192 1020.28 27.4981C1020.36 27.4418 1020.51 27.4981 1020.59 27.6131C1020.66 27.728 1020.67 27.8813 1020.59 27.9399V27.9399Z" fill="white"/>
<path id="Vector_39" d="M1021.32 28.697C1021.24 28.7804 1021.09 28.7579 1020.97 28.6452C1020.84 28.5325 1020.81 28.3793 1020.89 28.2981C1020.96 28.217 1021.11 28.2395 1021.24 28.35C1021.37 28.4604 1021.4 28.6159 1021.32 28.697V28.697Z" fill="white"/>
<path id="Vector_40" d="M1022.34 29.1388C1022.31 29.2448 1022.16 29.2921 1022 29.247C1021.85 29.2019 1021.75 29.0757 1021.78 28.9676C1021.8 28.8594 1021.96 28.8098 1022.12 28.8594C1022.27 28.909 1022.37 29.0284 1022.34 29.1388Z" fill="white"/>
<path id="Vector_41" d="M1023.46 29.2155C1023.46 29.3259 1023.34 29.4206 1023.17 29.4228C1023.01 29.4251 1022.88 29.3349 1022.88 29.2245C1022.88 29.114 1023 29.0194 1023.17 29.0171C1023.33 29.0149 1023.46 29.1028 1023.46 29.2155Z" fill="white"/>
<path id="Vector_42" d="M1024.51 29.0421C1024.53 29.1525 1024.41 29.2674 1024.25 29.2945C1024.09 29.3215 1023.94 29.2562 1023.92 29.148C1023.9 29.0398 1024.02 28.9226 1024.18 28.8933C1024.34 28.864 1024.49 28.9316 1024.51 29.0421Z" fill="white"/>
</g>
</g>
<g id="WhatsApp">
<rect x="1064" width="40" height="40" rx="20" fill="url(#paint2_linear_210_86159)"/>
<g id="Group_12">
<path id="Vector_43" d="M1071.87 31.6357L1073.58 25.4084C1072.52 23.5806 1071.97 21.5106 1071.97 19.3945C1071.97 12.7635 1077.4 7.37231 1084.05 7.37231C1087.28 7.37231 1090.32 8.62354 1092.6 10.8953C1094.88 13.1672 1096.14 16.1886 1096.13 19.4002C1096.13 26.0311 1090.71 31.4224 1084.05 31.4224H1084.04C1082.02 31.4224 1080.03 30.915 1078.26 29.9578L1071.87 31.6357ZM1078.57 27.784L1078.94 28.0031C1080.48 28.9141 1082.24 29.3927 1084.05 29.3985H1084.05C1089.58 29.3985 1094.09 24.9183 1094.09 19.406C1094.09 16.7363 1093.05 14.2281 1091.15 12.3369C1089.26 10.4456 1086.73 9.40772 1084.05 9.40772C1078.52 9.40195 1074.01 13.8821 1074.01 19.3945C1074.01 21.2799 1074.54 23.1193 1075.55 24.7107L1075.78 25.0913L1074.77 28.7758L1078.57 27.784Z" fill="white"/>
<path id="Vector_44" d="M1072.29 31.2148L1073.95 25.2008C1072.92 23.4422 1072.38 21.4414 1072.38 19.4002C1072.39 12.9999 1077.62 7.79321 1084.05 7.79321C1087.17 7.79321 1090.1 9.00408 1092.3 11.1952C1094.5 13.3862 1095.71 16.3039 1095.71 19.406C1095.71 25.8062 1090.48 31.013 1084.05 31.013H1084.05C1082.09 31.013 1080.18 30.5228 1078.47 29.6003L1072.29 31.2148Z" fill="url(#paint3_linear_210_86159)"/>
<path id="Vector_45" d="M1071.87 31.6357L1073.58 25.4084C1072.52 23.5806 1071.97 21.5106 1071.97 19.3945C1071.97 12.7635 1077.4 7.37231 1084.05 7.37231C1087.28 7.37231 1090.32 8.62354 1092.6 10.8953C1094.88 13.1672 1096.14 16.1886 1096.13 19.4002C1096.13 26.0311 1090.71 31.4224 1084.05 31.4224H1084.04C1082.02 31.4224 1080.03 30.915 1078.26 29.9578L1071.87 31.6357ZM1078.57 27.784L1078.94 28.0031C1080.48 28.9141 1082.24 29.3927 1084.05 29.3985H1084.05C1089.58 29.3985 1094.09 24.9183 1094.09 19.406C1094.09 16.7363 1093.05 14.2281 1091.15 12.3369C1089.26 10.4456 1086.73 9.40772 1084.05 9.40772C1078.52 9.40195 1074.01 13.8821 1074.01 19.3945C1074.01 21.2799 1074.54 23.1193 1075.55 24.7107L1075.78 25.0913L1074.77 28.7758L1078.57 27.784Z" fill="url(#paint4_linear_210_86159)"/>
<path id="Vector_46" fill-rule="evenodd" clip-rule="evenodd" d="M1081.03 14.3665C1080.81 13.8649 1080.57 13.8533 1080.36 13.8476C1080.18 13.8418 1079.98 13.8418 1079.78 13.8418C1079.57 13.8418 1079.25 13.9168 1078.97 14.2166C1078.69 14.5164 1077.92 15.2429 1077.92 16.7248C1077.92 18.2009 1079 19.6309 1079.15 19.8327C1079.3 20.0345 1081.24 23.1654 1084.31 24.3705C1086.86 25.3738 1087.38 25.172 1087.93 25.1201C1088.48 25.0682 1089.71 24.3936 1089.97 23.6902C1090.22 22.9867 1090.22 22.387 1090.14 22.2602C1090.07 22.1333 1089.86 22.0584 1089.56 21.9085C1089.26 21.7585 1087.78 21.032 1087.5 20.9282C1087.22 20.8302 1087.02 20.7783 1086.82 21.0781C1086.62 21.378 1086.04 22.0526 1085.87 22.2544C1085.69 22.4562 1085.51 22.4793 1085.21 22.3294C1084.91 22.1795 1083.94 21.8623 1082.78 20.836C1081.89 20.0403 1081.28 19.0543 1081.1 18.7544C1080.93 18.4546 1081.09 18.2932 1081.24 18.1432C1081.37 18.0106 1081.54 17.7915 1081.69 17.6185C1081.84 17.4456 1081.89 17.3187 1081.99 17.1169C1082.09 16.9151 1082.04 16.7421 1081.97 16.5922C1081.89 16.448 1081.3 14.9604 1081.03 14.3665Z" fill="white"/>
</g>
</g>
<g id="Signal">
<rect x="1120" width="40" height="40" rx="20" fill="#3A76F0"/>
<path id="Vector_47" d="M1137.58 6.76089L1137.87 7.9444C1136.72 8.229 1135.62 8.68533 1134.6 9.29803L1133.97 8.25137C1135.09 7.57431 1136.31 7.07171 1137.58 6.76089V6.76089ZM1143.83 6.76089L1143.54 7.9444C1144.69 8.229 1145.79 8.68533 1146.8 9.29803L1147.44 8.25137C1146.32 7.5749 1145.1 7.07236 1143.83 6.76089V6.76089ZM1129.55 12.6673C1128.88 13.787 1128.38 15.0028 1128.06 16.2733L1129.25 16.5655C1129.53 15.4139 1129.99 14.3118 1130.6 13.2961L1129.55 12.6673ZM1128.9 19.3985C1128.9 18.8067 1128.95 18.2158 1129.04 17.6307L1127.83 17.4457C1127.64 18.739 1127.64 20.0544 1127.83 21.3476L1129.04 21.1664C1128.95 20.5813 1128.9 19.9903 1128.9 19.3985V19.3985ZM1147.43 30.542L1146.8 29.499C1145.79 30.1123 1144.69 30.5687 1143.54 30.8527L1143.83 32.0362C1145.1 31.7224 1146.31 31.2186 1147.43 30.542ZM1152.5 19.3985C1152.5 19.9903 1152.46 20.5813 1152.37 21.1664L1153.57 21.3476C1153.77 20.0544 1153.77 18.739 1153.57 17.4457L1152.37 17.6307C1152.46 18.2158 1152.5 18.8067 1152.5 19.3985V19.3985ZM1153.34 22.52L1152.16 22.2279C1151.87 23.3808 1151.42 24.4843 1150.8 25.501L1151.85 26.1297C1152.53 25.0091 1153.03 23.7919 1153.34 22.52V22.52ZM1142.47 31.0635C1141.3 31.241 1140.11 31.241 1138.93 31.0635L1138.75 32.2692C1140.04 32.4652 1141.36 32.4652 1142.65 32.2692L1142.47 31.0635ZM1150.2 26.396C1149.5 27.3493 1148.65 28.1909 1147.7 28.8925L1148.42 29.8763C1149.48 29.1025 1150.41 28.1763 1151.18 27.1283L1150.2 26.396ZM1147.7 9.90088C1148.65 10.6038 1149.5 11.4467 1150.2 12.401L1151.18 11.6687C1150.41 10.6198 1149.48 9.69237 1148.43 8.91709L1147.7 9.90088ZM1131.2 12.401C1131.91 11.4467 1132.75 10.6038 1133.7 9.90088L1132.97 8.91709C1131.92 9.69237 1131 10.6198 1130.22 11.6687L1131.2 12.401ZM1151.85 12.6673L1150.8 13.2961C1151.42 14.3102 1151.87 15.4112 1152.16 16.5618L1153.34 16.2696C1153.03 15.0003 1152.53 13.7857 1151.85 12.6673V12.6673ZM1138.93 7.73359C1140.11 7.55604 1141.3 7.55604 1142.47 7.73359L1142.65 6.52789C1141.36 6.33185 1140.04 6.33185 1138.75 6.52789L1138.93 7.73359ZM1131.83 30.2017L1129.31 30.7861L1129.9 28.2674L1128.71 27.9901L1128.12 30.5087C1128.09 30.6649 1128.08 30.8267 1128.11 30.9851C1128.13 31.1434 1128.19 31.2951 1128.27 31.4315C1128.36 31.5679 1128.47 31.6862 1128.6 31.7798C1128.73 31.8734 1128.88 31.9404 1129.03 31.977C1129.22 32.0177 1129.41 32.0177 1129.59 31.977L1132.11 31.3963L1131.83 30.2017ZM1128.96 26.9027L1130.15 27.1764L1130.56 25.4307C1129.97 24.4341 1129.52 23.3547 1129.25 22.2279L1128.06 22.52C1128.33 23.5986 1128.73 24.6389 1129.26 25.6156L1128.96 26.9027ZM1134.66 29.5434L1132.91 29.9502L1133.19 31.1411L1134.47 30.8416C1135.45 31.3726 1136.49 31.7753 1137.57 32.0399L1137.86 30.8564C1136.74 30.5764 1135.66 30.1314 1134.67 29.536L1134.66 29.5434ZM1140.7 8.82093C1134.86 8.82463 1130.13 13.5624 1130.13 19.4022C1130.13 21.3913 1130.69 23.3394 1131.75 25.0239L1130.73 29.3659L1135.07 28.3488C1140.02 31.4592 1146.55 29.9761 1149.66 25.035C1152.77 20.0938 1151.29 13.5624 1146.35 10.4483C1144.66 9.3845 1142.7 8.82039 1140.7 8.82093" fill="white"/>
</g>
<g id="imo">
<rect x="1176" width="40" height="40" rx="20" fill="#339FF8"/>
<g id="Group_13">
<path id="Vector_48" d="M1196.93 33.2331C1194.01 33.2331 1191.3 32.3352 1189.05 30.8049C1188 31.3593 1185.62 31.4842 1184.58 31.3593C1183.08 31.1797 1181.49 29.9305 1183.02 28.7125C1185.38 26.8309 1184.74 26.0892 1184.74 26.0892C1183.61 24.0671 1182.96 21.7404 1182.96 19.2654C1182.97 11.5438 1189.22 5.29004 1196.93 5.29004C1204.64 5.29004 1210.9 11.5438 1210.9 19.2576C1210.9 26.9714 1204.64 33.2331 1196.93 33.2331ZM1196.93 7.3356C1190.3 7.3356 1184.93 12.715 1184.93 19.3435C1184.93 21.6233 1185.57 23.7626 1186.67 25.5817C1186.67 25.5817 1187.46 27.6195 1185.44 29.1419C1186.7 29.5713 1189.37 28.7828 1189.5 28.7828C1191.55 30.3911 1194.13 31.3514 1196.93 31.3514C1203.56 31.3514 1208.94 25.9721 1208.94 19.3435C1208.94 12.715 1203.56 7.3356 1196.93 7.3356ZM1203.35 22.7788C1201.89 22.7788 1200.75 21.8107 1200.75 20.1867C1200.75 18.5628 1201.82 17.5244 1203.44 17.5244C1204.99 17.5244 1206.01 18.5862 1206.01 20.1009C1206.01 21.9356 1204.7 22.7788 1203.35 22.7788ZM1203.4 18.633C1202.65 18.633 1202.37 19.406 1202.37 20.1477C1202.37 21.0143 1202.73 21.6623 1203.4 21.6623C1204.01 21.6623 1204.4 21.0534 1204.4 20.1477C1204.39 19.3982 1204.11 18.633 1203.4 18.633ZM1199.03 22.6695C1199.03 22.6695 1198.43 22.6695 1198.19 22.6695C1197.79 22.6695 1197.87 22.0918 1197.87 22.0918V19.9291C1197.87 19.1952 1197.63 18.7736 1197.12 18.7736C1196.76 18.7736 1196.51 19.0234 1196.41 19.3201C1196.37 19.4372 1196.34 19.6012 1196.34 19.7183V22.1698C1196.34 22.1698 1196.35 22.6617 1195.91 22.6617C1195.59 22.6617 1195.22 22.6617 1195.22 22.6617C1195.22 22.6617 1194.82 22.6305 1194.82 22.123C1194.82 21.3032 1194.82 19.8354 1194.82 19.8354C1194.82 19.1952 1194.59 18.7658 1194.1 18.7658C1193.7 18.7658 1193.46 19.0781 1193.37 19.3357C1193.31 19.4606 1193.31 19.6012 1193.31 19.7261V22.123C1193.31 22.123 1193.36 22.6617 1192.95 22.6617C1192.75 22.6617 1192.5 22.6617 1192.28 22.6617C1191.78 22.6617 1191.78 22.123 1191.78 22.123V19.2342C1191.78 18.7423 1191.75 17.9304 1191.75 17.9304C1191.75 17.9304 1191.74 17.6259 1192.07 17.6259C1192.27 17.6259 1192.52 17.6259 1192.73 17.6259C1193.04 17.6259 1193.09 17.9304 1193.09 17.9304L1193.13 18.3051H1193.16C1193.38 17.985 1193.82 17.5088 1194.69 17.5088C1195.34 17.5088 1195.85 17.8367 1196.07 18.3598H1196.09C1196.28 18.1021 1196.51 17.8991 1196.74 17.7508C1197.02 17.5868 1197.33 17.501 1197.7 17.501C1198.67 17.501 1199.4 18.1802 1199.4 19.6871C1199.4 19.6871 1199.4 21.2642 1199.4 22.1152C1199.39 22.6305 1199.03 22.6695 1199.03 22.6695ZM1189.32 16.5875C1188.83 16.5875 1188.5 16.2361 1188.51 15.8067C1188.5 15.3539 1188.83 15.0104 1189.33 15.0104C1189.84 15.0104 1190.15 15.3539 1190.17 15.8067C1190.17 16.2439 1189.84 16.5875 1189.32 16.5875ZM1188.87 17.6337C1189.23 17.6337 1189.78 17.6337 1189.78 17.6337C1189.78 17.6337 1190.12 17.6337 1190.12 18.0241C1190.12 18.9375 1190.12 22.2167 1190.12 22.2167C1190.12 22.2167 1190.14 22.6695 1189.76 22.6695C1189.38 22.6695 1188.83 22.6695 1188.83 22.6695C1188.83 22.6695 1188.56 22.6539 1188.56 22.2791C1188.56 21.1549 1188.56 17.9538 1188.56 17.9538C1188.56 17.9538 1188.55 17.6337 1188.87 17.6337Z" fill="white"/>
</g>
</g>
<g id="Telegram">
<rect x="1232" width="40" height="40" rx="20" fill="url(#paint5_linear_210_86159)"/>
<path id="Vector_49" fill-rule="evenodd" clip-rule="evenodd" d="M1241.05 19.7889C1246.88 17.2487 1250.77 15.574 1252.72 14.7649C1258.27 12.4547 1259.43 12.0534 1260.18 12.0402C1260.34 12.0373 1260.71 12.0783 1260.95 12.2727C1261.15 12.4369 1261.21 12.6587 1261.24 12.8143C1261.26 12.97 1261.3 13.3246 1261.27 13.6017C1260.97 16.7641 1259.67 24.4386 1259 27.9806C1258.72 29.4794 1258.17 29.9819 1257.64 30.0311C1256.48 30.138 1255.59 29.2635 1254.47 28.5261C1252.71 27.3723 1251.71 26.654 1250.01 25.528C1248.03 24.2268 1249.31 23.5116 1250.44 22.3428C1250.73 22.0369 1255.85 17.3823 1255.95 16.96C1255.96 16.9072 1255.97 16.7104 1255.85 16.6065C1255.74 16.5025 1255.57 16.5381 1255.44 16.5663C1255.26 16.6064 1252.45 18.465 1247 22.1423C1246.21 22.6904 1245.48 22.9574 1244.84 22.9434C1244.12 22.928 1242.75 22.5397 1241.73 22.2077C1240.47 21.8006 1239.48 21.5853 1239.57 20.8939C1239.61 20.5337 1240.11 20.1654 1241.05 19.7889Z" fill="white"/>
</g>
<g id="Facebook Messenger">
<rect x="1288" width="40" height="40" rx="20" fill="url(#paint6_radial_210_86159)"/>
<g id="Group_14">
<path id="Subtract" fill-rule="evenodd" clip-rule="evenodd" d="M1294.64 19.5982C1294.64 12.155 1300.48 6.64185 1308 6.64185C1315.52 6.64185 1321.36 12.1583 1321.36 19.6015C1321.36 27.0447 1315.52 32.5578 1308 32.5578C1306.65 32.5578 1305.35 32.3775 1304.13 32.0436C1303.9 31.9801 1303.64 31.9968 1303.42 32.097L1300.77 33.2657C1300.07 33.5729 1299.29 33.0787 1299.27 32.3207L1299.19 29.9432C1299.19 29.6493 1299.05 29.3755 1298.84 29.1818C1296.24 26.8577 1294.64 23.4917 1294.64 19.5982ZM1303.9 17.1638L1299.98 23.3882C1299.6 23.986 1300.34 24.6571 1300.9 24.2297L1305.11 21.0307C1305.4 20.8137 1305.79 20.8137 1306.08 21.0274L1309.2 23.3682C1310.14 24.0694 1311.47 23.8257 1312.1 22.8339L1316.02 16.6129C1316.4 16.0151 1315.66 15.3406 1315.1 15.768L1310.89 18.967C1310.6 19.1841 1310.21 19.1841 1309.92 18.9704L1306.8 16.6296C1305.86 15.9283 1304.53 16.1721 1303.9 17.1638Z" fill="white"/>
</g>
</g>
</g>
<defs>
<radialGradient id="paint0_radial_210_86159" cx="0" cy="0" r="1" gradientUnits="userSpaceOnUse" gradientTransform="translate(122.625 43.0808) rotate(-90) scale(39.643 36.8711)">
<stop stop-color="#FFDD55"/>
<stop offset="0.1" stop-color="#FFDD55"/>
<stop offset="0.5" stop-color="#FF543E"/>
<stop offset="1" stop-color="#C837AB"/>
</radialGradient>
<radialGradient id="paint1_radial_210_86159" cx="0" cy="0" r="1" gradientUnits="userSpaceOnUse" gradientTransform="translate(158.7 2.88153) rotate(101.319) scale(17.7206 73.0449)">
<stop stop-color="#3771C8"/>
<stop offset="0.128" stop-color="#3771C8"/>
<stop offset="1" stop-color="#6600FF" stop-opacity="0"/>
</radialGradient>
<linearGradient id="paint2_linear_210_86159" x1="1084" y1="39.998" x2="1084" y2="-0.0013995" gradientUnits="userSpaceOnUse">
<stop stop-color="#20B038"/>
<stop offset="1" stop-color="#60D66A"/>
</linearGradient>
<linearGradient id="paint3_linear_210_86159" x1="1084" y1="31.2136" x2="1084" y2="7.79239" gradientUnits="userSpaceOnUse">
<stop stop-color="#20B038"/>
<stop offset="1" stop-color="#60D66A"/>
</linearGradient>
<linearGradient id="paint4_linear_210_86159" x1="1084" y1="31.6334" x2="1084" y2="7.37231" gradientUnits="userSpaceOnUse">
<stop stop-color="#F9F9F9"/>
<stop offset="1" stop-color="white"/>
</linearGradient>
<linearGradient id="paint5_linear_210_86159" x1="1252" y1="0" x2="1252" y2="39.7033" gradientUnits="userSpaceOnUse">
<stop stop-color="#2AABEE"/>
<stop offset="1" stop-color="#229ED9"/>
</linearGradient>
<radialGradient id="paint6_radial_210_86159" cx="0" cy="0" r="1" gradientUnits="userSpaceOnUse" gradientTransform="translate(1295.7 39.7853) scale(43.584 43.5801)">
<stop stop-color="#0099FF"/>
<stop offset="0.6098" stop-color="#A033FF"/>
<stop offset="0.9348" stop-color="#FF5280"/>
<stop offset="1" stop-color="#FF7061"/>
</radialGradient>
<clipPath id="clip0_210_86159">
<rect x="112" width="40" height="40" rx="20" fill="white"/>
</clipPath>
<clipPath id="clip1_210_86159">
<rect width="40" height="40" fill="white" transform="translate(448)"/>
</clipPath>
</defs>
</svg>
