<svg width="40" height="40" viewBox="0 0 40 40" fill="none" xmlns="http://www.w3.org/2000/svg">
<g clip-path="url(#clip0_210_86172)">
<path d="M20 40C31.0457 40 40 31.0457 40 20C40 8.9543 31.0457 0 20 0C8.9543 0 0 8.9543 0 20C0 31.0457 8.9543 40 20 40Z" fill="#FF4500"/>
<path d="M33.3333 20.0001C33.3333 18.386 32.0233 17.0761 30.4093 17.0761C29.614 17.0761 28.9122 17.3802 28.3976 17.8948C26.4093 16.4679 23.6491 15.5322 20.6081 15.4153L21.9414 9.16965L26.2689 10.0819C26.3157 11.1813 27.228 12.0702 28.3508 12.0702C29.497 12.0702 30.4327 11.1346 30.4327 9.98837C30.4327 8.84217 29.497 7.90649 28.3508 7.90649C27.5321 7.90649 26.8303 8.37433 26.5029 9.07608L21.6607 8.04685C21.5204 8.02345 21.38 8.04685 21.2631 8.11702C21.1461 8.1872 21.076 8.30416 21.0292 8.44451L19.5555 15.4153C16.4444 15.5088 13.6607 16.4211 11.6491 17.8948C11.1344 17.4036 10.4093 17.0761 9.63736 17.0761C8.02332 17.0761 6.71338 18.386 6.71338 20.0001C6.71338 21.193 7.41513 22.1989 8.44437 22.6667C8.39759 22.9474 8.3742 23.2515 8.3742 23.5556C8.3742 28.0468 13.5906 31.6726 20.0467 31.6726C26.5029 31.6726 31.7192 28.0468 31.7192 23.5556C31.7192 23.2515 31.6958 22.9708 31.6491 22.6901C32.6081 22.2223 33.3333 21.193 33.3333 20.0001ZM13.3333 22.0819C13.3333 20.9357 14.2689 20.0001 15.4151 20.0001C16.5613 20.0001 17.497 20.9357 17.497 22.0819C17.497 23.2281 16.5613 24.1638 15.4151 24.1638C14.2689 24.1638 13.3333 23.2281 13.3333 22.0819ZM24.959 27.579C23.5321 29.0059 20.8186 29.0995 20.0233 29.0995C19.228 29.0995 16.4912 28.9825 15.0876 27.579C14.8771 27.3685 14.8771 27.0176 15.0876 26.8071C15.2982 26.5966 15.6491 26.5966 15.8596 26.8071C16.7485 27.696 18.6666 28.0235 20.0467 28.0235C21.4268 28.0235 23.3216 27.696 24.2338 26.8071C24.4444 26.5966 24.7953 26.5966 25.0058 26.8071C25.1695 27.041 25.1695 27.3685 24.959 27.579ZM24.5847 24.1638C23.4385 24.1638 22.5029 23.2281 22.5029 22.0819C22.5029 20.9357 23.4385 20.0001 24.5847 20.0001C25.7309 20.0001 26.6666 20.9357 26.6666 22.0819C26.6666 23.2281 25.7309 24.1638 24.5847 24.1638Z" fill="white"/>
</g>
<defs>
<clipPath id="clip0_210_86172">
<rect width="40" height="40" fill="white"/>
</clipPath>
</defs>
</svg>
