<svg width="32" height="38" viewBox="0 0 32 38" fill="none" xmlns="http://www.w3.org/2000/svg">
<path d="M27.1181 34.379V24.5363H30.4032V37.6641H0.765625V24.5363H4.03921V34.379H27.1181ZM7.32318 31.0996H23.8399V27.8157H7.32318V31.0996ZM7.72676 23.6415L23.841 27.0039L24.5317 23.8214L8.42437 20.4637L7.72676 23.6415ZM9.81613 15.8698L24.7358 22.8309L26.123 19.8329L11.2056 12.8672L9.81729 15.8467L9.81613 15.8698ZM13.9903 8.51316L26.6199 19.0534L28.7105 16.5593L16.0808 6.02597L14.0018 8.50624L13.9903 8.51316ZM22.146 0.765625L19.4616 2.75353L29.3101 15.9828L31.9944 13.9949L22.146 0.765625Z" fill="black"/>
</svg>
