<svg width="40" height="40" viewBox="0 0 40 40" fill="none" xmlns="http://www.w3.org/2000/svg">
<rect width="40" height="40" rx="20" fill="black"/>
<path d="M25.5775 16.1073C27.3781 17.399 29.5838 18.159 31.9662 18.159V13.5583C31.5153 13.5584 31.0656 13.5112 30.6245 13.4174V17.0388C28.2424 17.0388 26.0369 16.2788 24.2358 14.9872V24.3759C24.2358 29.0726 20.4419 32.8798 15.7622 32.8798C14.0161 32.8798 12.3931 32.35 11.0449 31.4415C12.5837 33.0204 14.7295 33.9999 17.1036 33.9999C21.7836 33.9999 25.5777 30.1927 25.5777 25.4958V16.1073H25.5775V16.1073ZM27.2326 11.4657C26.3124 10.4568 25.7082 9.15304 25.5775 7.71162V7.11987H24.3061C24.6261 8.95191 25.7177 10.5171 27.2326 11.4657ZM14.0049 27.8373C13.4907 27.1608 13.2129 26.3333 13.2141 25.4824C13.2141 23.3343 14.9495 21.5926 17.0904 21.5926C17.4893 21.5925 17.8859 21.6538 18.2662 21.7748V17.0713C17.8218 17.0102 17.3734 16.9842 16.9251 16.9938V20.6548C16.5446 20.5337 16.1478 20.4722 15.7487 20.4726C13.6078 20.4726 11.8726 22.2141 11.8726 24.3625C11.8726 25.8815 12.7399 27.1967 14.0049 27.8373Z" fill="#FF004F"/>
<path d="M24.2357 14.9871C26.0368 16.2787 28.2423 17.0387 30.6245 17.0387V13.4173C29.2947 13.1331 28.1176 12.4357 27.2325 11.4657C25.7175 10.517 24.626 8.95182 24.306 7.11987H20.9663V25.4956C20.9587 27.6378 19.2264 29.3724 17.0901 29.3724C15.8312 29.3724 14.7128 28.7702 14.0045 27.8373C12.7397 27.1967 11.8723 25.8814 11.8723 24.3626C11.8723 22.2144 13.6075 20.4727 15.7484 20.4727C16.1586 20.4727 16.554 20.5368 16.9248 20.6549V16.9939C12.3273 17.0892 8.62976 20.8592 8.62976 25.4957C8.62976 27.8102 9.55053 29.9085 11.0449 31.4416C12.3931 32.35 14.0161 32.8799 15.7622 32.8799C20.442 32.8799 24.2358 29.0725 24.2358 24.3759V14.9871H24.2357Z" fill="white"/>
<path d="M30.6245 13.4174V12.4382C29.4254 12.4401 28.2499 12.1031 27.2325 11.4658C28.1331 12.4552 29.319 13.1375 30.6245 13.4174ZM24.306 7.11998C24.2755 6.9449 24.252 6.76866 24.2358 6.59175V6H19.6246V24.3759C19.6172 26.5179 17.8849 28.2525 15.7484 28.2525C15.1212 28.2525 14.529 28.1031 14.0045 27.8375C14.7128 28.7703 15.8312 29.3725 17.0901 29.3725C19.2262 29.3725 20.9589 27.6381 20.9663 25.4958V7.11998H24.306ZM16.925 16.994V15.9515C16.5397 15.8987 16.1513 15.8722 15.7623 15.8724C11.0821 15.8723 7.28821 19.6796 7.28821 24.3759C7.28821 27.3203 8.77928 29.9151 11.0451 31.4415C9.55065 29.9085 8.62988 27.8102 8.62988 25.4957C8.62988 20.8593 12.3273 17.0893 16.925 16.994Z" fill="#00F2EA"/>
</svg>
